<svg width="136" height="96" viewBox="0 0 136 96" fill="none" xmlns="http://www.w3.org/2000/svg">
<path d="M21.2576 73.1356C22.8641 73.1357 18.7095 72.2226 15.3729 75.4536C12.0362 78.6847 13.6708 83.0297 15.0611 84.376C13.6708 83.9913 9.75188 82.7586 7.31519 85.4991C5.07623 88.0172 6.12353 90.9151 7.31519 92.4537" stroke="#F5F5F5" stroke-width="3" stroke-linecap="round" stroke-linejoin="round"/>
<path d="M65 2L95 28.5V80.5M77 2L107 28.5V69.5" stroke="#EA4C14" stroke-width="3" stroke-linecap="round" stroke-linejoin="round"/>
<path d="M31 76.5H73M42.5 76.5V85.5M61.5 76.5V85.5M31 46H73" stroke="#EA4C14" stroke-width="3" stroke-linecap="round" stroke-linejoin="round"/>
<path d="M22 94V29L52 2M52 2L82.5 29M52 2H87L120 29M82.5 29V94M82.5 29H120M120 29V77.5" stroke="#EA4C14" stroke-width="3" stroke-linecap="round" stroke-linejoin="round"/>
<path d="M73 52.766V34.1348L52 15L31 34.1348V86H52H73V52.766Z" stroke="#EA4C14" stroke-width="3" stroke-linecap="round" stroke-linejoin="round"/>
<path d="M2 93.9995H134.5" stroke="#F5F5F5" stroke-width="3" stroke-linecap="round" stroke-linejoin="round"/>
<path d="M89.6962 93.227C88.0902 91.9392 85.5205 88.2816 88.0902 83.9543C90.6599 79.627 95.585 80.0907 97.7264 80.8634C96.388 76.9998 95.9597 69.2725 104.954 69.2725C113.948 69.2725 115.125 76.9998 114.59 80.8634C114.858 78.8028 117.802 76.227 121.817 77.7725C125.152 79.0559 124.494 83.1816 124.226 84.727C125.297 84.2119 130.49 83.1816 131.454 87.8179C132.096 90.9088 130.115 92.1967 129.848 93.227H89.6962Z" stroke="#F5F5F5" stroke-width="3" stroke-linecap="round" stroke-linejoin="round"/>
</svg>
