<svg width="127" height="102" viewBox="0 0 127 102" fill="none" xmlns="http://www.w3.org/2000/svg">
<path d="M17.0761 78.4999C18.6826 78.4999 14.5281 77.5868 11.1914 80.8179C7.85477 84.049 9.48939 88.394 10.8797 89.7402C9.48934 89.3556 5.57042 88.1229 3.13373 90.8634C0.894768 93.3815 2.80796 97.4614 3.99962 99" stroke="#F5F5F5" stroke-width="3" stroke-linecap="round" stroke-linejoin="round"/>
<path d="M18.6818 99.3636V18.2273L47.5909 2M47.5909 2L76.5 15.1364V30.5909M47.5909 2V99.3636M65.2576 99.3636V36.7727L87.7424 24.4091M87.7424 24.4091L110.227 34.4545V81.5909M87.7424 24.4091V84.6818" stroke="#EA4C14" stroke-width="3" stroke-linecap="round" stroke-linejoin="round"/>
<path d="M18.6815 82.3634L47.5905 79.2725L65.2572 80.8179M65.2572 86.227L87.7421 84.6816" stroke="#EA4C14" stroke-width="3" stroke-linecap="round" stroke-linejoin="round"/>
<path d="M83.211 99.5913C81.6049 98.3034 79.0352 93.6459 81.6049 89.3186C84.1746 84.9913 89.0998 85.4549 91.2412 86.2277C89.9028 82.364 89.4745 74.6367 98.4685 74.6367C107.462 74.6367 108.64 82.364 108.105 86.2277C108.372 84.167 111.317 81.5913 115.332 83.1367C118.667 84.4202 118.009 88.5458 117.741 90.0913C118.812 89.5761 124.005 88.5458 124.968 93.1822C125.611 96.2731 123.63 98.561 123.362 99.5913H83.211Z" stroke="#F5F5F5" stroke-width="3" stroke-linecap="round" stroke-linejoin="round"/>
</svg>
